<svg width="130" height="143" viewBox="0 0 130 143" fill="none" xmlns="http://www.w3.org/2000/svg">
<mask id="mask0" mask-type="alpha" maskUnits="userSpaceOnUse" x="0" y="0" width="130" height="143">
<path d="M86.9105 64.531V22.5108C86.9105 10.0548 76.8557 0 64.3997 0C52.8442 0 43.4646 8.70419 42.189 19.8846L86.9105 64.531ZM110.022 67.5325C106.945 67.5325 104.244 69.7835 103.794 72.86C103.418 75.2612 102.893 77.6623 102.143 79.8384L111.672 89.368C113.924 84.8658 115.574 79.9885 116.4 74.811C116.925 70.9841 113.924 67.5325 110.022 67.5325ZM2.19481 11.7056C-0.731602 14.632 -0.731602 19.3593 2.19481 22.2857L41.8889 62.0548V65.2814C41.8889 74.2107 46.3911 82.6897 54.1198 87.1169C59.7475 90.3434 64.6998 90.4185 69.277 89.443L81.733 101.899C76.4055 104.375 70.4776 105.801 64.3997 105.801C45.3405 105.801 27.7821 92.5195 25.0058 72.86C24.5556 69.7835 21.8543 67.5325 18.7778 67.5325C14.8759 67.5325 11.8745 70.9841 12.3997 74.811C15.8514 97.0216 34.6104 114.58 56.8961 117.957V135.065C56.8961 139.192 60.2727 142.569 64.3997 142.569C68.5267 142.569 71.9033 139.192 71.9033 135.065V117.957C78.7316 116.981 85.1847 114.58 91.0375 111.203L117.225 137.391C120.152 140.317 124.879 140.317 127.805 137.391C130.732 134.465 130.732 129.737 127.805 126.811L12.7749 11.7056C9.84848 8.77922 5.12121 8.77922 2.19481 11.7056Z" fill="black"/>
</mask>
<g mask="url(#mask0)">
<rect x="-49.8301" y="53.2607" width="58.2019" height="190.219" transform="rotate(-45.1403 -49.8301 53.2607)" fill="black"/>
<rect x="12.0059" y="-6.7666" width="58.2019" height="190.219" transform="rotate(-45.1403 12.0059 -6.7666)" fill="black"/>
</g>
<rect width="161.071" height="12" rx="6" transform="matrix(-0.707107 -0.707107 -0.707107 0.707107 126.393 118.137)" fill="#FE0000"/>
</svg>
