<svg width="855" height="234" viewBox="0 0 855 234" fill="none" xmlns="http://www.w3.org/2000/svg">
<path fill-rule="evenodd" clip-rule="evenodd" d="M836.852 91.2405C836.852 89.9356 835.801 88.8799 834.491 88.8799H830.858C829.551 88.8799 828.493 89.9379 828.493 91.2405V142.083C828.493 143.388 829.551 144.448 830.858 144.448H834.491C835.801 144.448 836.852 143.388 836.852 142.083V91.2405Z" fill="#5B7992"/>
<path fill-rule="evenodd" clip-rule="evenodd" d="M819.199 64.0266C819.199 62.7241 818.144 61.666 816.836 61.666H813.201C811.896 61.666 810.841 62.7241 810.841 64.0266V169.292C810.841 170.597 811.896 171.657 813.201 171.657H816.836C818.144 171.657 819.199 170.597 819.199 169.292V64.0266Z" fill="#5B7992"/>
<path fill-rule="evenodd" clip-rule="evenodd" d="M801.559 76.5055C801.559 75.1936 800.496 74.1426 799.189 74.1426H795.558C794.251 74.1426 793.193 75.1959 793.193 76.5055V156.818C793.193 158.123 794.251 159.183 795.558 159.183H799.189C800.496 159.183 801.559 158.123 801.559 156.818V76.5055Z" fill="#5B7992"/>
<path fill-rule="evenodd" clip-rule="evenodd" d="M783.895 42.3606C783.895 41.0486 782.832 40 781.529 40H777.894C776.592 40 775.524 41.0486 775.524 42.3606V190.954C775.524 192.264 776.592 193.329 777.894 193.329H781.529C782.832 193.329 783.895 192.264 783.895 190.954V42.3606Z" fill="#5B7992"/>
<path fill-rule="evenodd" clip-rule="evenodd" d="M766.242 53.7356C766.242 52.4307 765.182 51.375 763.875 51.375H760.244C758.935 51.375 757.879 52.433 757.879 53.7356V179.579C757.879 180.888 758.935 181.944 760.244 181.944H763.875C765.182 181.944 766.242 180.888 766.242 179.579V53.7356Z" fill="#5B7992"/>
<path fill-rule="evenodd" clip-rule="evenodd" d="M748.59 77.6885C748.59 76.3813 747.529 75.3232 746.225 75.3232H742.587C741.282 75.3232 740.227 76.3836 740.227 77.6885V155.638C740.227 156.947 741.282 158.003 742.587 158.003H746.225C747.529 158.003 748.59 156.947 748.59 155.638V77.6885Z" fill="#5B7992"/>
<path fill-rule="evenodd" clip-rule="evenodd" d="M855 107.287C855 105.975 853.937 104.924 852.635 104.924H849C847.692 104.924 846.634 105.975 846.634 107.287V126.038C846.634 127.342 847.692 128.408 849 128.408H852.635C853.937 128.408 855 127.342 855 126.038V107.287Z" fill="#5B7992"/>
<path fill-rule="evenodd" clip-rule="evenodd" d="M713.367 99.9538C713.367 98.6489 712.307 97.5908 711 97.5908H707.369C706.064 97.5908 704.999 98.6489 704.999 99.9538V132.189C704.999 133.489 706.064 134.549 707.369 134.549H711C712.307 134.549 713.367 133.489 713.367 132.189V99.9538Z" fill="#5B7992"/>
<path fill-rule="evenodd" clip-rule="evenodd" d="M730.926 94.9208C730.926 93.6088 729.863 92.5508 728.558 92.5508H724.926C723.616 92.5508 722.56 93.6088 722.56 94.9208V140.045C722.56 141.355 723.616 141.23 724.926 141.23H728.558C729.863 141.23 730.926 141.355 730.926 140.045V94.9208Z" fill="#5B7992"/>
<path d="M72.0703 185C70.7682 182.461 69.8242 179.303 69.2383 175.527C62.4023 183.145 53.5156 186.953 42.5781 186.953C32.2266 186.953 23.6328 183.958 16.7969 177.969C10.026 171.979 6.64062 164.427 6.64062 155.312C6.64062 144.115 10.7747 135.521 19.043 129.531C27.3763 123.542 39.388 120.514 55.0781 120.449H68.0664V114.395C68.0664 109.512 66.7969 105.605 64.2578 102.676C61.7839 99.7461 57.8451 98.2812 52.4414 98.2812C47.6888 98.2812 43.9453 99.4206 41.2109 101.699C38.5417 103.978 37.207 107.103 37.207 111.074H8.98438C8.98438 104.954 10.8724 99.2904 14.6484 94.082C18.4245 88.8737 23.763 84.8047 30.6641 81.875C37.5651 78.8802 45.3125 77.3828 53.9062 77.3828C66.9271 77.3828 77.2461 80.6706 84.8633 87.2461C92.5456 93.7565 96.3867 102.936 96.3867 114.785V160.586C96.4518 170.612 97.8516 178.197 100.586 183.34V185H72.0703ZM48.7305 165.371C52.8971 165.371 56.7383 164.46 60.2539 162.637C63.7695 160.749 66.3737 158.242 68.0664 155.117V136.953H57.5195C43.3919 136.953 35.8724 141.836 34.9609 151.602L34.8633 153.262C34.8633 156.777 36.1003 159.674 38.5742 161.953C41.0482 164.232 44.4336 165.371 48.7305 165.371ZM147.852 185H119.531V79.3359H147.852V185ZM117.871 51.9922C117.871 47.7604 119.271 44.2773 122.07 41.543C124.935 38.8086 128.809 37.4414 133.691 37.4414C138.509 37.4414 142.35 38.8086 145.215 41.543C148.079 44.2773 149.512 47.7604 149.512 51.9922C149.512 56.2891 148.047 59.8047 145.117 62.5391C142.253 65.2734 138.444 66.6406 133.691 66.6406C128.939 66.6406 125.098 65.2734 122.168 62.5391C119.303 59.8047 117.871 56.2891 117.871 51.9922ZM230.566 105.801C226.725 105.28 223.34 105.02 220.41 105.02C209.733 105.02 202.734 108.633 199.414 115.859V185H171.191V79.3359H197.852L198.633 91.9336C204.297 82.2331 212.142 77.3828 222.168 77.3828C225.293 77.3828 228.223 77.806 230.957 78.6523L230.566 105.801ZM337.891 146.621L351.758 79.3359H379.004L352.051 185H328.418L308.398 118.496L288.379 185H264.844L237.891 79.3359H265.137L278.906 146.523L298.242 79.3359H318.652L337.891 146.621ZM454.297 185C452.995 182.461 452.051 179.303 451.465 175.527C444.629 183.145 435.742 186.953 424.805 186.953C414.453 186.953 405.859 183.958 399.023 177.969C392.253 171.979 388.867 164.427 388.867 155.312C388.867 144.115 393.001 135.521 401.27 129.531C409.603 123.542 421.615 120.514 437.305 120.449H450.293V114.395C450.293 109.512 449.023 105.605 446.484 102.676C444.01 99.7461 440.072 98.2812 434.668 98.2812C429.915 98.2812 426.172 99.4206 423.438 101.699C420.768 103.978 419.434 107.103 419.434 111.074H391.211C391.211 104.954 393.099 99.2904 396.875 94.082C400.651 88.8737 405.99 84.8047 412.891 81.875C419.792 78.8802 427.539 77.3828 436.133 77.3828C449.154 77.3828 459.473 80.6706 467.09 87.2461C474.772 93.7565 478.613 102.936 478.613 114.785V160.586C478.678 170.612 480.078 178.197 482.812 183.34V185H454.297ZM430.957 165.371C435.124 165.371 438.965 164.46 442.48 162.637C445.996 160.749 448.6 158.242 450.293 155.117V136.953H439.746C425.618 136.953 418.099 141.836 417.188 151.602L417.09 153.262C417.09 156.777 418.327 159.674 420.801 161.953C423.275 164.232 426.66 165.371 430.957 165.371ZM538.281 150.527L557.91 79.3359H587.402L551.758 185H524.805L489.16 79.3359H518.652L538.281 150.527ZM647.168 186.953C631.673 186.953 619.043 182.201 609.277 172.695C599.577 163.19 594.727 150.527 594.727 134.707V131.973C594.727 121.361 596.777 111.888 600.879 103.555C604.98 95.1562 610.775 88.7109 618.262 84.2188C625.814 79.6615 634.408 77.3828 644.043 77.3828C658.496 77.3828 669.857 81.9401 678.125 91.0547C686.458 100.169 690.625 113.092 690.625 129.824V141.348H623.34C624.251 148.249 626.986 153.783 631.543 157.949C636.165 162.116 641.992 164.199 649.023 164.199C659.896 164.199 668.392 160.26 674.512 152.383L688.379 167.91C684.147 173.9 678.418 178.587 671.191 181.973C663.965 185.293 655.957 186.953 647.168 186.953ZM643.945 100.234C638.346 100.234 633.789 102.122 630.273 105.898C626.823 109.674 624.609 115.078 623.633 122.109H662.891V119.863C662.76 113.613 661.068 108.796 657.812 105.41C654.557 101.96 649.935 100.234 643.945 100.234Z" fill="#414141"/>
</svg>
