<svg width="105" height="145" viewBox="0 0 105 145" fill="none" xmlns="http://www.w3.org/2000/svg">
<path d="M52.4919 91.0148C65.0823 91.0148 75.2456 80.8515 75.2456 68.2611V22.7537C75.2456 10.1633 65.0823 0 52.4919 0C39.9015 0 29.7382 10.1633 29.7382 22.7537V68.2611C29.7382 80.8515 39.9015 91.0148 52.4919 91.0148ZM97.3167 68.2611C93.6003 68.2611 90.4906 70.9916 89.8839 74.708C86.7742 92.5317 71.2258 106.184 52.4919 106.184C33.758 106.184 18.2097 92.5317 15.1 74.708C14.4932 70.9916 11.3836 68.2611 7.66713 68.2611C3.04054 68.2611 -0.600054 72.3568 0.0825576 76.9075C3.799 99.6612 22.002 117.485 44.9074 120.746V136.522C44.9074 140.694 48.3204 144.107 52.4919 144.107C56.6634 144.107 60.0765 140.694 60.0765 136.522V120.746C82.9819 117.485 101.185 99.6612 104.901 76.9075C105.66 72.3568 101.943 68.2611 97.3167 68.2611Z" fill="black"/>
</svg>
