<svg width="60" height="63" viewBox="0 0 60 63" fill="none" xmlns="http://www.w3.org/2000/svg">
<path d="M26.8223 59.6051H5.96051C2.65243 59.6051 0 56.9229 0 53.6446L0.0298025 11.921C0.0298025 8.64274 2.65243 5.96051 5.96051 5.96051H8.94077V2.98026C8.94077 1.34111 10.2819 0 11.921 0C13.5602 0 14.9013 1.34111 14.9013 2.98026V5.96051H38.7433V2.98026C38.7433 1.34111 40.0844 0 41.7236 0C43.3627 0 44.7038 1.34111 44.7038 2.98026V5.96051H47.6841C50.9624 5.96051 53.6446 8.64274 53.6446 11.921V29.8026H47.6841V23.842H5.96051V53.6446H26.8223V59.6051ZM57.0123 44.674L59.1283 42.5581C60.2906 41.3958 60.2906 39.5182 59.1283 38.3559L57.0123 36.2399C55.85 35.0776 53.9724 35.0776 52.8101 36.2399L50.6942 38.3559L57.0123 44.674ZM54.8963 46.79L39.9652 61.7211C39.4288 62.2575 38.6539 62.5854 37.8791 62.5854H34.2729C33.4385 62.5854 32.7828 61.9297 32.7828 61.0952V57.4891C32.7828 56.6845 33.1106 55.9394 33.6471 55.3731L48.5782 40.4421L54.8963 46.79Z" fill="#5B7992"/>
</svg>
