<svg width="150" height="150" viewBox="0 0 150 150" fill="none" xmlns="http://www.w3.org/2000/svg">
<path fill-rule="evenodd" clip-rule="evenodd" d="M131.852 50.1277C131.852 48.8511 130.801 47.8184 129.491 47.8184H125.858C124.551 47.8184 123.493 48.8534 123.493 50.1277V99.8663C123.493 101.143 124.551 102.18 125.858 102.18H129.491C130.801 102.18 131.852 101.143 131.852 99.8663V50.1277Z" fill="#5B7992"/>
<path fill-rule="evenodd" clip-rule="evenodd" d="M114.199 23.5047C114.199 22.2304 113.144 21.1953 111.836 21.1953H108.201C106.896 21.1953 105.841 22.2304 105.841 23.5047V126.485C105.841 127.761 106.896 128.799 108.201 128.799H111.836C113.144 128.799 114.199 127.761 114.199 126.485V23.5047Z" fill="#5B7992"/>
<path fill-rule="evenodd" clip-rule="evenodd" d="M96.5586 35.713C96.5586 34.4295 95.4959 33.4014 94.1886 33.4014H90.5583C89.2511 33.4014 88.193 34.4318 88.193 35.713V114.282C88.193 115.558 89.2511 116.596 90.5583 116.596H94.1886C95.4959 116.596 96.5586 115.558 96.5586 114.282V35.713Z" fill="#5B7992"/>
<path fill-rule="evenodd" clip-rule="evenodd" d="M78.8945 2.30935C78.8945 1.02587 77.8318 0 76.5292 0H72.8943C71.5917 0 70.5243 1.02587 70.5243 2.30935V147.677C70.5243 148.958 71.5917 150 72.8943 150H76.5292C77.8318 150 78.8945 148.958 78.8945 147.677V2.30935Z" fill="#5B7992"/>
<path fill-rule="evenodd" clip-rule="evenodd" d="M61.2422 13.4373C61.2422 12.1607 60.1818 11.1279 58.8745 11.1279H55.2443C53.9347 11.1279 52.879 12.163 52.879 13.4373V136.548C52.879 137.83 53.9347 138.862 55.2443 138.862H58.8745C60.1818 138.862 61.2422 137.83 61.2422 136.548V13.4373Z" fill="#5B7992"/>
<path fill-rule="evenodd" clip-rule="evenodd" d="M43.5898 36.8706C43.5898 35.5917 42.5295 34.5566 41.2245 34.5566H37.5872C36.2823 34.5566 35.2266 35.594 35.2266 36.8706V113.128C35.2266 114.409 36.2823 115.442 37.5872 115.442H41.2245C42.5295 115.442 43.5898 114.409 43.5898 113.128V36.8706Z" fill="#5B7992"/>
<path fill-rule="evenodd" clip-rule="evenodd" d="M150 65.8263C150 64.5428 148.937 63.5146 147.635 63.5146H144C142.692 63.5146 141.634 64.5428 141.634 65.8263V84.17C141.634 85.4466 142.692 86.4886 144 86.4886H147.635C148.937 86.4886 150 85.4466 150 84.17V65.8263Z" fill="#5B7992"/>
<path fill-rule="evenodd" clip-rule="evenodd" d="M8.36719 58.6525C8.36719 57.3759 7.30679 56.3408 5.99952 56.3408H2.36928C1.06436 56.3408 -0.00073719 57.3759 -0.00073719 58.6525V90.1876C-0.00073719 91.4596 1.06436 92.497 2.36928 92.497H5.99952C7.30679 92.497 8.36719 91.4596 8.36719 90.1876V58.6525Z" fill="#5B7992"/>
<path fill-rule="evenodd" clip-rule="evenodd" d="M25.9258 53.7287C25.9258 52.4452 24.863 51.4102 23.5581 51.4102H19.9255C18.6159 51.4102 17.5602 52.4452 17.5602 53.7287V97.8733C17.5602 99.1545 18.6159 99.0326 19.9255 99.0326H23.5581C24.863 99.0326 25.9258 99.1545 25.9258 97.8733V53.7287Z" fill="#5B7992"/>
</svg>
